<?xml version="1.0" encoding="utf-8"?>
<!-- Generated at https://slitherlink.neocities.org/ -->
<svg width="531.745px" height="531.745px" viewBox="0 0 587.5 587.5" style="" xmlns="http://www.w3.org/2000/svg" xmlns:xlink="http://www.w3.org/1999/xlink">
<defs>
	<svg id="n00" viewBox="-739 -739 2956 2956" width="28.2" height="28.2">
		<path transform="translate( 209, 0 ) translate( -50, 16 )" d="M1110 723q0 -189 -40.5 -328.5t-112 -230.5t-169 -135.5t-210.5 -44.5t-209.5 44.5t-167.5 135.5t-111 230.5t-40 328.5q0 190 40 329t111 230t167.5 135.5t209.5 44.5t210.5 -44.5t169 -135.5t112 -230t40.5 -329zM855 723q0 157 -23 260t-61.5 164t-88.5 85.5 t-104 24.5q-53 0 -102.5 -24.5t-87.5 -85.5t-60.5 -164t-22.5 -260t22.5 -260t60.5 -164t87.5 -85.5t102.5 -24.5q54 0 104 24.5t88.5 85.5t61.5 164t23 260z"></path>
	</svg>
	<svg id="n01" viewBox="-724 -724 2896 2896" width="28.2" height="28.2">
		<path transform="translate( 272, 0 ) translate( 0, 1448 ) scale( 1, -1 ) translate( -165, 0 )" d="M269 185h293v843q0 49 3 103l-208 -174q-13 -11 -26.5 -15t-26.5 -4q-20 0 -36.5 8.5t-24.5 19.5l-78 107l441 375h203v-1263h260v-185h-800v185z"></path>
	</svg>
	<svg id="n02" viewBox="-731 -731 2924 2924" width="28.2" height="28.2">
		<path transform="translate( 235, 0 ) translate( 0, 1462 ) scale( 1, -1 ) translate( -84, 0 )" d="M602 1462q100 0 183 -29.5t142 -83.5t92 -130t33 -169q0 -80 -23.5 -148t-63 -130t-92.5 -120t-111 -118l-326 -333q48 14 94 21.5t88 7.5h371q40 0 63.5 -22.5t23.5 -59.5v-148h-992v82q0 25 10.5 52t33.5 50l439 440q55 56 98.5 107t73 101t45 101.5t15.5 108.5 q0 52 -15 91.5t-43 66.5t-66.5 40.5t-86.5 13.5q-89 0 -146.5 -45t-80.5 -121q-11 -38 -33 -54.5t-56 -16.5q-15 0 -33 3l-130 23q15 104 58 182.5t107.5 131t148 79t179.5 26.5z"></path>
	</svg>
	<svg id="n03" viewBox="-739 -739 2956 2956" width="28.2" height="28.2">
		<path transform="translate( 239, 0 ) translate( 0, 1478 ) scale( 1, -1 ) translate( -90, 16 )" d="M625 1462q100 0 180.5 -28.5t137.5 -79t87.5 -118.5t30.5 -147q0 -69 -15.5 -121.5t-45 -91.5t-72 -66t-96.5 -45q130 -41 194 -125t64 -211q0 -108 -40 -191t-108 -139.5t-157.5 -85.5t-189.5 -29q-109 0 -190 25t-141 74t-102 120t-72 164l109 45q28 12 57 12 q26 0 46.5 -11t31.5 -32q18 -35 39.5 -69t51.5 -60.5t70.5 -43t96.5 -16.5q63 0 110 20.5t78.5 53.5t47 73.5t15.5 81.5q0 52 -11 94.5t-46 72.5t-100.5 47t-175.5 17v176q91 1 151 17t95.5 44.5t49.5 68.5t14 88q0 103 -56 155.5t-153 52.5q-88 0 -146 -46.5t-81 -119.5 q-12 -38 -33 -54.5t-55 -16.5q-16 0 -34 3l-130 23q15 104 58 182.5t107.5 131t148 79t179.5 26.5z"></path>
	</svg>
</defs>
<defs>
	<pattern id="pointsPattern" fill="#cfcf03" width="0.05531914893617021" height="0.05531914893617021">
		<path id="p4" d="M0,0 h2.5 v2.5 h-2.5 z"></path>
	</pattern>
</defs>
<defs><path id="hGridLine" d="M0,0 h585 v2.5 h-585 z"></path><path id="vGridLine" d="M0,0 h2.5 v585 h-2.5 z"></path><path id="hLine" d="M0,0 h35 v2.5 h-35 z"></path><path id="vLine" d="M0,0 v35 h2.5 v-35 z"></path></defs>
<rect id="background" width="100%" height="100%" fill="white"></rect>
<g id="board" transform="translate(-16,-16)">
	<g id="grid" fill="#cfcf03"><use href="#vGridLine" xlink:href="#vGridLine" x="16" y="16"></use><use href="#vGridLine" xlink:href="#vGridLine" x="48.5" y="16"></use><use href="#vGridLine" xlink:href="#vGridLine" x="81" y="16"></use><use href="#vGridLine" xlink:href="#vGridLine" x="113.5" y="16"></use><use href="#vGridLine" xlink:href="#vGridLine" x="146" y="16"></use><use href="#vGridLine" xlink:href="#vGridLine" x="178.5" y="16"></use><use href="#vGridLine" xlink:href="#vGridLine" x="211" y="16"></use><use href="#vGridLine" xlink:href="#vGridLine" x="243.5" y="16"></use><use href="#vGridLine" xlink:href="#vGridLine" x="276" y="16"></use><use href="#vGridLine" xlink:href="#vGridLine" x="308.5" y="16"></use><use href="#vGridLine" xlink:href="#vGridLine" x="341" y="16"></use><use href="#vGridLine" xlink:href="#vGridLine" x="373.5" y="16"></use><use href="#vGridLine" xlink:href="#vGridLine" x="406" y="16"></use><use href="#vGridLine" xlink:href="#vGridLine" x="438.5" y="16"></use><use href="#vGridLine" xlink:href="#vGridLine" x="471" y="16"></use><use href="#vGridLine" xlink:href="#vGridLine" x="503.5" y="16"></use><use href="#vGridLine" xlink:href="#vGridLine" x="536" y="16"></use><use href="#vGridLine" xlink:href="#vGridLine" x="568.5" y="16"></use><use href="#vGridLine" xlink:href="#vGridLine" x="601" y="16"></use><use href="#hGridLine" xlink:href="#hGridLine" x="16" y="16"></use><use href="#hGridLine" xlink:href="#hGridLine" x="16" y="48.5"></use><use href="#hGridLine" xlink:href="#hGridLine" x="16" y="81"></use><use href="#hGridLine" xlink:href="#hGridLine" x="16" y="113.5"></use><use href="#hGridLine" xlink:href="#hGridLine" x="16" y="146"></use><use href="#hGridLine" xlink:href="#hGridLine" x="16" y="178.5"></use><use href="#hGridLine" xlink:href="#hGridLine" x="16" y="211"></use><use href="#hGridLine" xlink:href="#hGridLine" x="16" y="243.5"></use><use href="#hGridLine" xlink:href="#hGridLine" x="16" y="276"></use><use href="#hGridLine" xlink:href="#hGridLine" x="16" y="308.5"></use><use href="#hGridLine" xlink:href="#hGridLine" x="16" y="341"></use><use href="#hGridLine" xlink:href="#hGridLine" x="16" y="373.5"></use><use href="#hGridLine" xlink:href="#hGridLine" x="16" y="406"></use><use href="#hGridLine" xlink:href="#hGridLine" x="16" y="438.5"></use><use href="#hGridLine" xlink:href="#hGridLine" x="16" y="471"></use><use href="#hGridLine" xlink:href="#hGridLine" x="16" y="503.5"></use><use href="#hGridLine" xlink:href="#hGridLine" x="16" y="536"></use><use href="#hGridLine" xlink:href="#hGridLine" x="16" y="568.5"></use><use href="#hGridLine" xlink:href="#hGridLine" x="16" y="601"></use></g>
	<path id="pointsPatternArea" d="M16,16 h587.5 v587.5 h-587.5 z" fill="none"></path>
	<g id="points" fill="#cfcf03"><use href="#p4" xlink:href="#p4" x="16" y="16"></use><use href="#p4" xlink:href="#p4" x="48.5" y="16"></use><use href="#p4" xlink:href="#p4" x="81" y="16"></use><use href="#p4" xlink:href="#p4" x="113.5" y="16"></use><use href="#p4" xlink:href="#p4" x="146" y="16"></use><use href="#p4" xlink:href="#p4" x="178.5" y="16"></use><use href="#p4" xlink:href="#p4" x="211" y="16"></use><use href="#p4" xlink:href="#p4" x="243.5" y="16"></use><use href="#p4" xlink:href="#p4" x="276" y="16"></use><use href="#p4" xlink:href="#p4" x="308.5" y="16"></use><use href="#p4" xlink:href="#p4" x="341" y="16"></use><use href="#p4" xlink:href="#p4" x="373.5" y="16"></use><use href="#p4" xlink:href="#p4" x="406" y="16"></use><use href="#p4" xlink:href="#p4" x="438.5" y="16"></use><use href="#p4" xlink:href="#p4" x="471" y="16"></use><use href="#p4" xlink:href="#p4" x="503.5" y="16"></use><use href="#p4" xlink:href="#p4" x="536" y="16"></use><use href="#p4" xlink:href="#p4" x="568.5" y="16"></use><use href="#p4" xlink:href="#p4" x="601" y="16"></use><use href="#p4" xlink:href="#p4" x="16" y="48.5"></use><use href="#p4" xlink:href="#p4" x="48.5" y="48.5"></use><use href="#p4" xlink:href="#p4" x="81" y="48.5"></use><use href="#p4" xlink:href="#p4" x="113.5" y="48.5"></use><use href="#p4" xlink:href="#p4" x="146" y="48.5"></use><use href="#p4" xlink:href="#p4" x="178.5" y="48.5"></use><use href="#p4" xlink:href="#p4" x="211" y="48.5"></use><use href="#p4" xlink:href="#p4" x="243.5" y="48.5"></use><use href="#p4" xlink:href="#p4" x="276" y="48.5"></use><use href="#p4" xlink:href="#p4" x="308.5" y="48.5"></use><use href="#p4" xlink:href="#p4" x="341" y="48.5"></use><use href="#p4" xlink:href="#p4" x="373.5" y="48.5"></use><use href="#p4" xlink:href="#p4" x="406" y="48.5"></use><use href="#p4" xlink:href="#p4" x="438.5" y="48.5"></use><use href="#p4" xlink:href="#p4" x="471" y="48.5"></use><use href="#p4" xlink:href="#p4" x="503.5" y="48.5"></use><use href="#p4" xlink:href="#p4" x="536" y="48.5"></use><use href="#p4" xlink:href="#p4" x="568.5" y="48.5"></use><use href="#p4" xlink:href="#p4" x="601" y="48.5"></use><use href="#p4" xlink:href="#p4" x="16" y="81"></use><use href="#p4" xlink:href="#p4" x="48.5" y="81"></use><use href="#p4" xlink:href="#p4" x="81" y="81"></use><use href="#p4" xlink:href="#p4" x="113.5" y="81"></use><use href="#p4" xlink:href="#p4" x="146" y="81"></use><use href="#p4" xlink:href="#p4" x="178.5" y="81"></use><use href="#p4" xlink:href="#p4" x="211" y="81"></use><use href="#p4" xlink:href="#p4" x="243.5" y="81"></use><use href="#p4" xlink:href="#p4" x="276" y="81"></use><use href="#p4" xlink:href="#p4" x="308.5" y="81"></use><use href="#p4" xlink:href="#p4" x="341" y="81"></use><use href="#p4" xlink:href="#p4" x="373.5" y="81"></use><use href="#p4" xlink:href="#p4" x="406" y="81"></use><use href="#p4" xlink:href="#p4" x="438.5" y="81"></use><use href="#p4" xlink:href="#p4" x="471" y="81"></use><use href="#p4" xlink:href="#p4" x="503.5" y="81"></use><use href="#p4" xlink:href="#p4" x="536" y="81"></use><use href="#p4" xlink:href="#p4" x="568.5" y="81"></use><use href="#p4" xlink:href="#p4" x="601" y="81"></use><use href="#p4" xlink:href="#p4" x="16" y="113.5"></use><use href="#p4" xlink:href="#p4" x="48.5" y="113.5"></use><use href="#p4" xlink:href="#p4" x="81" y="113.5"></use><use href="#p4" xlink:href="#p4" x="113.5" y="113.5"></use><use href="#p4" xlink:href="#p4" x="146" y="113.5"></use><use href="#p4" xlink:href="#p4" x="178.5" y="113.5"></use><use href="#p4" xlink:href="#p4" x="211" y="113.5"></use><use href="#p4" xlink:href="#p4" x="243.5" y="113.5"></use><use href="#p4" xlink:href="#p4" x="276" y="113.5"></use><use href="#p4" xlink:href="#p4" x="308.5" y="113.5"></use><use href="#p4" xlink:href="#p4" x="341" y="113.5"></use><use href="#p4" xlink:href="#p4" x="373.5" y="113.5"></use><use href="#p4" xlink:href="#p4" x="406" y="113.5"></use><use href="#p4" xlink:href="#p4" x="438.5" y="113.5"></use><use href="#p4" xlink:href="#p4" x="471" y="113.5"></use><use href="#p4" xlink:href="#p4" x="503.5" y="113.5"></use><use href="#p4" xlink:href="#p4" x="536" y="113.5"></use><use href="#p4" xlink:href="#p4" x="568.5" y="113.5"></use><use href="#p4" xlink:href="#p4" x="601" y="113.5"></use><use href="#p4" xlink:href="#p4" x="16" y="146"></use><use href="#p4" xlink:href="#p4" x="48.5" y="146"></use><use href="#p4" xlink:href="#p4" x="81" y="146"></use><use href="#p4" xlink:href="#p4" x="113.5" y="146"></use><use href="#p4" xlink:href="#p4" x="146" y="146"></use><use href="#p4" xlink:href="#p4" x="178.5" y="146"></use><use href="#p4" xlink:href="#p4" x="211" y="146"></use><use href="#p4" xlink:href="#p4" x="243.5" y="146"></use><use href="#p4" xlink:href="#p4" x="276" y="146"></use><use href="#p4" xlink:href="#p4" x="308.5" y="146"></use><use href="#p4" xlink:href="#p4" x="341" y="146"></use><use href="#p4" xlink:href="#p4" x="373.5" y="146"></use><use href="#p4" xlink:href="#p4" x="406" y="146"></use><use href="#p4" xlink:href="#p4" x="438.5" y="146"></use><use href="#p4" xlink:href="#p4" x="471" y="146"></use><use href="#p4" xlink:href="#p4" x="503.5" y="146"></use><use href="#p4" xlink:href="#p4" x="536" y="146"></use><use href="#p4" xlink:href="#p4" x="568.5" y="146"></use><use href="#p4" xlink:href="#p4" x="601" y="146"></use><use href="#p4" xlink:href="#p4" x="16" y="178.5"></use><use href="#p4" xlink:href="#p4" x="48.5" y="178.5"></use><use href="#p4" xlink:href="#p4" x="81" y="178.5"></use><use href="#p4" xlink:href="#p4" x="113.5" y="178.5"></use><use href="#p4" xlink:href="#p4" x="146" y="178.5"></use><use href="#p4" xlink:href="#p4" x="178.5" y="178.5"></use><use href="#p4" xlink:href="#p4" x="211" y="178.5"></use><use href="#p4" xlink:href="#p4" x="243.5" y="178.5"></use><use href="#p4" xlink:href="#p4" x="276" y="178.5"></use><use href="#p4" xlink:href="#p4" x="308.5" y="178.5"></use><use href="#p4" xlink:href="#p4" x="341" y="178.5"></use><use href="#p4" xlink:href="#p4" x="373.5" y="178.5"></use><use href="#p4" xlink:href="#p4" x="406" y="178.5"></use><use href="#p4" xlink:href="#p4" x="438.5" y="178.5"></use><use href="#p4" xlink:href="#p4" x="471" y="178.5"></use><use href="#p4" xlink:href="#p4" x="503.5" y="178.5"></use><use href="#p4" xlink:href="#p4" x="536" y="178.5"></use><use href="#p4" xlink:href="#p4" x="568.5" y="178.5"></use><use href="#p4" xlink:href="#p4" x="601" y="178.5"></use><use href="#p4" xlink:href="#p4" x="16" y="211"></use><use href="#p4" xlink:href="#p4" x="48.5" y="211"></use><use href="#p4" xlink:href="#p4" x="81" y="211"></use><use href="#p4" xlink:href="#p4" x="113.5" y="211"></use><use href="#p4" xlink:href="#p4" x="146" y="211"></use><use href="#p4" xlink:href="#p4" x="178.5" y="211"></use><use href="#p4" xlink:href="#p4" x="211" y="211"></use><use href="#p4" xlink:href="#p4" x="243.5" y="211"></use><use href="#p4" xlink:href="#p4" x="276" y="211"></use><use href="#p4" xlink:href="#p4" x="308.5" y="211"></use><use href="#p4" xlink:href="#p4" x="341" y="211"></use><use href="#p4" xlink:href="#p4" x="373.5" y="211"></use><use href="#p4" xlink:href="#p4" x="406" y="211"></use><use href="#p4" xlink:href="#p4" x="438.5" y="211"></use><use href="#p4" xlink:href="#p4" x="471" y="211"></use><use href="#p4" xlink:href="#p4" x="503.5" y="211"></use><use href="#p4" xlink:href="#p4" x="536" y="211"></use><use href="#p4" xlink:href="#p4" x="568.5" y="211"></use><use href="#p4" xlink:href="#p4" x="601" y="211"></use><use href="#p4" xlink:href="#p4" x="16" y="243.5"></use><use href="#p4" xlink:href="#p4" x="48.5" y="243.5"></use><use href="#p4" xlink:href="#p4" x="81" y="243.5"></use><use href="#p4" xlink:href="#p4" x="113.5" y="243.5"></use><use href="#p4" xlink:href="#p4" x="146" y="243.5"></use><use href="#p4" xlink:href="#p4" x="178.5" y="243.5"></use><use href="#p4" xlink:href="#p4" x="211" y="243.5"></use><use href="#p4" xlink:href="#p4" x="243.5" y="243.5"></use><use href="#p4" xlink:href="#p4" x="276" y="243.5"></use><use href="#p4" xlink:href="#p4" x="308.5" y="243.5"></use><use href="#p4" xlink:href="#p4" x="341" y="243.5"></use><use href="#p4" xlink:href="#p4" x="373.5" y="243.5"></use><use href="#p4" xlink:href="#p4" x="406" y="243.5"></use><use href="#p4" xlink:href="#p4" x="438.5" y="243.5"></use><use href="#p4" xlink:href="#p4" x="471" y="243.5"></use><use href="#p4" xlink:href="#p4" x="503.5" y="243.5"></use><use href="#p4" xlink:href="#p4" x="536" y="243.5"></use><use href="#p4" xlink:href="#p4" x="568.5" y="243.5"></use><use href="#p4" xlink:href="#p4" x="601" y="243.5"></use><use href="#p4" xlink:href="#p4" x="16" y="276"></use><use href="#p4" xlink:href="#p4" x="48.5" y="276"></use><use href="#p4" xlink:href="#p4" x="81" y="276"></use><use href="#p4" xlink:href="#p4" x="113.5" y="276"></use><use href="#p4" xlink:href="#p4" x="146" y="276"></use><use href="#p4" xlink:href="#p4" x="178.5" y="276"></use><use href="#p4" xlink:href="#p4" x="211" y="276"></use><use href="#p4" xlink:href="#p4" x="243.5" y="276"></use><use href="#p4" xlink:href="#p4" x="276" y="276"></use><use href="#p4" xlink:href="#p4" x="308.5" y="276"></use><use href="#p4" xlink:href="#p4" x="341" y="276"></use><use href="#p4" xlink:href="#p4" x="373.5" y="276"></use><use href="#p4" xlink:href="#p4" x="406" y="276"></use><use href="#p4" xlink:href="#p4" x="438.5" y="276"></use><use href="#p4" xlink:href="#p4" x="471" y="276"></use><use href="#p4" xlink:href="#p4" x="503.5" y="276"></use><use href="#p4" xlink:href="#p4" x="536" y="276"></use><use href="#p4" xlink:href="#p4" x="568.5" y="276"></use><use href="#p4" xlink:href="#p4" x="601" y="276"></use><use href="#p4" xlink:href="#p4" x="16" y="308.5"></use><use href="#p4" xlink:href="#p4" x="48.5" y="308.5"></use><use href="#p4" xlink:href="#p4" x="81" y="308.5"></use><use href="#p4" xlink:href="#p4" x="113.5" y="308.5"></use><use href="#p4" xlink:href="#p4" x="146" y="308.5"></use><use href="#p4" xlink:href="#p4" x="178.5" y="308.5"></use><use href="#p4" xlink:href="#p4" x="211" y="308.5"></use><use href="#p4" xlink:href="#p4" x="243.5" y="308.5"></use><use href="#p4" xlink:href="#p4" x="276" y="308.5"></use><use href="#p4" xlink:href="#p4" x="308.5" y="308.5"></use><use href="#p4" xlink:href="#p4" x="341" y="308.5"></use><use href="#p4" xlink:href="#p4" x="373.5" y="308.5"></use><use href="#p4" xlink:href="#p4" x="406" y="308.5"></use><use href="#p4" xlink:href="#p4" x="438.5" y="308.5"></use><use href="#p4" xlink:href="#p4" x="471" y="308.5"></use><use href="#p4" xlink:href="#p4" x="503.5" y="308.5"></use><use href="#p4" xlink:href="#p4" x="536" y="308.5"></use><use href="#p4" xlink:href="#p4" x="568.5" y="308.5"></use><use href="#p4" xlink:href="#p4" x="601" y="308.5"></use><use href="#p4" xlink:href="#p4" x="16" y="341"></use><use href="#p4" xlink:href="#p4" x="48.5" y="341"></use><use href="#p4" xlink:href="#p4" x="81" y="341"></use><use href="#p4" xlink:href="#p4" x="113.5" y="341"></use><use href="#p4" xlink:href="#p4" x="146" y="341"></use><use href="#p4" xlink:href="#p4" x="178.5" y="341"></use><use href="#p4" xlink:href="#p4" x="211" y="341"></use><use href="#p4" xlink:href="#p4" x="243.5" y="341"></use><use href="#p4" xlink:href="#p4" x="276" y="341"></use><use href="#p4" xlink:href="#p4" x="308.5" y="341"></use><use href="#p4" xlink:href="#p4" x="341" y="341"></use><use href="#p4" xlink:href="#p4" x="373.5" y="341"></use><use href="#p4" xlink:href="#p4" x="406" y="341"></use><use href="#p4" xlink:href="#p4" x="438.5" y="341"></use><use href="#p4" xlink:href="#p4" x="471" y="341"></use><use href="#p4" xlink:href="#p4" x="503.5" y="341"></use><use href="#p4" xlink:href="#p4" x="536" y="341"></use><use href="#p4" xlink:href="#p4" x="568.5" y="341"></use><use href="#p4" xlink:href="#p4" x="601" y="341"></use><use href="#p4" xlink:href="#p4" x="16" y="373.5"></use><use href="#p4" xlink:href="#p4" x="48.5" y="373.5"></use><use href="#p4" xlink:href="#p4" x="81" y="373.5"></use><use href="#p4" xlink:href="#p4" x="113.5" y="373.5"></use><use href="#p4" xlink:href="#p4" x="146" y="373.5"></use><use href="#p4" xlink:href="#p4" x="178.5" y="373.5"></use><use href="#p4" xlink:href="#p4" x="211" y="373.5"></use><use href="#p4" xlink:href="#p4" x="243.5" y="373.5"></use><use href="#p4" xlink:href="#p4" x="276" y="373.5"></use><use href="#p4" xlink:href="#p4" x="308.5" y="373.5"></use><use href="#p4" xlink:href="#p4" x="341" y="373.5"></use><use href="#p4" xlink:href="#p4" x="373.5" y="373.5"></use><use href="#p4" xlink:href="#p4" x="406" y="373.5"></use><use href="#p4" xlink:href="#p4" x="438.5" y="373.5"></use><use href="#p4" xlink:href="#p4" x="471" y="373.5"></use><use href="#p4" xlink:href="#p4" x="503.5" y="373.5"></use><use href="#p4" xlink:href="#p4" x="536" y="373.5"></use><use href="#p4" xlink:href="#p4" x="568.5" y="373.5"></use><use href="#p4" xlink:href="#p4" x="601" y="373.5"></use><use href="#p4" xlink:href="#p4" x="16" y="406"></use><use href="#p4" xlink:href="#p4" x="48.5" y="406"></use><use href="#p4" xlink:href="#p4" x="81" y="406"></use><use href="#p4" xlink:href="#p4" x="113.5" y="406"></use><use href="#p4" xlink:href="#p4" x="146" y="406"></use><use href="#p4" xlink:href="#p4" x="178.5" y="406"></use><use href="#p4" xlink:href="#p4" x="211" y="406"></use><use href="#p4" xlink:href="#p4" x="243.5" y="406"></use><use href="#p4" xlink:href="#p4" x="276" y="406"></use><use href="#p4" xlink:href="#p4" x="308.5" y="406"></use><use href="#p4" xlink:href="#p4" x="341" y="406"></use><use href="#p4" xlink:href="#p4" x="373.5" y="406"></use><use href="#p4" xlink:href="#p4" x="406" y="406"></use><use href="#p4" xlink:href="#p4" x="438.5" y="406"></use><use href="#p4" xlink:href="#p4" x="471" y="406"></use><use href="#p4" xlink:href="#p4" x="503.5" y="406"></use><use href="#p4" xlink:href="#p4" x="536" y="406"></use><use href="#p4" xlink:href="#p4" x="568.5" y="406"></use><use href="#p4" xlink:href="#p4" x="601" y="406"></use><use href="#p4" xlink:href="#p4" x="16" y="438.5"></use><use href="#p4" xlink:href="#p4" x="48.5" y="438.5"></use><use href="#p4" xlink:href="#p4" x="81" y="438.5"></use><use href="#p4" xlink:href="#p4" x="113.5" y="438.5"></use><use href="#p4" xlink:href="#p4" x="146" y="438.5"></use><use href="#p4" xlink:href="#p4" x="178.5" y="438.5"></use><use href="#p4" xlink:href="#p4" x="211" y="438.5"></use><use href="#p4" xlink:href="#p4" x="243.5" y="438.5"></use><use href="#p4" xlink:href="#p4" x="276" y="438.5"></use><use href="#p4" xlink:href="#p4" x="308.5" y="438.5"></use><use href="#p4" xlink:href="#p4" x="341" y="438.5"></use><use href="#p4" xlink:href="#p4" x="373.5" y="438.5"></use><use href="#p4" xlink:href="#p4" x="406" y="438.5"></use><use href="#p4" xlink:href="#p4" x="438.5" y="438.5"></use><use href="#p4" xlink:href="#p4" x="471" y="438.5"></use><use href="#p4" xlink:href="#p4" x="503.5" y="438.5"></use><use href="#p4" xlink:href="#p4" x="536" y="438.5"></use><use href="#p4" xlink:href="#p4" x="568.5" y="438.5"></use><use href="#p4" xlink:href="#p4" x="601" y="438.5"></use><use href="#p4" xlink:href="#p4" x="16" y="471"></use><use href="#p4" xlink:href="#p4" x="48.5" y="471"></use><use href="#p4" xlink:href="#p4" x="81" y="471"></use><use href="#p4" xlink:href="#p4" x="113.5" y="471"></use><use href="#p4" xlink:href="#p4" x="146" y="471"></use><use href="#p4" xlink:href="#p4" x="178.5" y="471"></use><use href="#p4" xlink:href="#p4" x="211" y="471"></use><use href="#p4" xlink:href="#p4" x="243.5" y="471"></use><use href="#p4" xlink:href="#p4" x="276" y="471"></use><use href="#p4" xlink:href="#p4" x="308.5" y="471"></use><use href="#p4" xlink:href="#p4" x="341" y="471"></use><use href="#p4" xlink:href="#p4" x="373.5" y="471"></use><use href="#p4" xlink:href="#p4" x="406" y="471"></use><use href="#p4" xlink:href="#p4" x="438.5" y="471"></use><use href="#p4" xlink:href="#p4" x="471" y="471"></use><use href="#p4" xlink:href="#p4" x="503.5" y="471"></use><use href="#p4" xlink:href="#p4" x="536" y="471"></use><use href="#p4" xlink:href="#p4" x="568.5" y="471"></use><use href="#p4" xlink:href="#p4" x="601" y="471"></use><use href="#p4" xlink:href="#p4" x="16" y="503.5"></use><use href="#p4" xlink:href="#p4" x="48.5" y="503.5"></use><use href="#p4" xlink:href="#p4" x="81" y="503.5"></use><use href="#p4" xlink:href="#p4" x="113.5" y="503.5"></use><use href="#p4" xlink:href="#p4" x="146" y="503.5"></use><use href="#p4" xlink:href="#p4" x="178.5" y="503.5"></use><use href="#p4" xlink:href="#p4" x="211" y="503.5"></use><use href="#p4" xlink:href="#p4" x="243.5" y="503.5"></use><use href="#p4" xlink:href="#p4" x="276" y="503.5"></use><use href="#p4" xlink:href="#p4" x="308.5" y="503.5"></use><use href="#p4" xlink:href="#p4" x="341" y="503.5"></use><use href="#p4" xlink:href="#p4" x="373.5" y="503.5"></use><use href="#p4" xlink:href="#p4" x="406" y="503.5"></use><use href="#p4" xlink:href="#p4" x="438.5" y="503.5"></use><use href="#p4" xlink:href="#p4" x="471" y="503.5"></use><use href="#p4" xlink:href="#p4" x="503.5" y="503.5"></use><use href="#p4" xlink:href="#p4" x="536" y="503.5"></use><use href="#p4" xlink:href="#p4" x="568.5" y="503.5"></use><use href="#p4" xlink:href="#p4" x="601" y="503.5"></use><use href="#p4" xlink:href="#p4" x="16" y="536"></use><use href="#p4" xlink:href="#p4" x="48.5" y="536"></use><use href="#p4" xlink:href="#p4" x="81" y="536"></use><use href="#p4" xlink:href="#p4" x="113.5" y="536"></use><use href="#p4" xlink:href="#p4" x="146" y="536"></use><use href="#p4" xlink:href="#p4" x="178.5" y="536"></use><use href="#p4" xlink:href="#p4" x="211" y="536"></use><use href="#p4" xlink:href="#p4" x="243.5" y="536"></use><use href="#p4" xlink:href="#p4" x="276" y="536"></use><use href="#p4" xlink:href="#p4" x="308.5" y="536"></use><use href="#p4" xlink:href="#p4" x="341" y="536"></use><use href="#p4" xlink:href="#p4" x="373.5" y="536"></use><use href="#p4" xlink:href="#p4" x="406" y="536"></use><use href="#p4" xlink:href="#p4" x="438.5" y="536"></use><use href="#p4" xlink:href="#p4" x="471" y="536"></use><use href="#p4" xlink:href="#p4" x="503.5" y="536"></use><use href="#p4" xlink:href="#p4" x="536" y="536"></use><use href="#p4" xlink:href="#p4" x="568.5" y="536"></use><use href="#p4" xlink:href="#p4" x="601" y="536"></use><use href="#p4" xlink:href="#p4" x="16" y="568.5"></use><use href="#p4" xlink:href="#p4" x="48.5" y="568.5"></use><use href="#p4" xlink:href="#p4" x="81" y="568.5"></use><use href="#p4" xlink:href="#p4" x="113.5" y="568.5"></use><use href="#p4" xlink:href="#p4" x="146" y="568.5"></use><use href="#p4" xlink:href="#p4" x="178.5" y="568.5"></use><use href="#p4" xlink:href="#p4" x="211" y="568.5"></use><use href="#p4" xlink:href="#p4" x="243.5" y="568.5"></use><use href="#p4" xlink:href="#p4" x="276" y="568.5"></use><use href="#p4" xlink:href="#p4" x="308.5" y="568.5"></use><use href="#p4" xlink:href="#p4" x="341" y="568.5"></use><use href="#p4" xlink:href="#p4" x="373.5" y="568.5"></use><use href="#p4" xlink:href="#p4" x="406" y="568.5"></use><use href="#p4" xlink:href="#p4" x="438.5" y="568.5"></use><use href="#p4" xlink:href="#p4" x="471" y="568.5"></use><use href="#p4" xlink:href="#p4" x="503.5" y="568.5"></use><use href="#p4" xlink:href="#p4" x="536" y="568.5"></use><use href="#p4" xlink:href="#p4" x="568.5" y="568.5"></use><use href="#p4" xlink:href="#p4" x="601" y="568.5"></use><use href="#p4" xlink:href="#p4" x="16" y="601"></use><use href="#p4" xlink:href="#p4" x="48.5" y="601"></use><use href="#p4" xlink:href="#p4" x="81" y="601"></use><use href="#p4" xlink:href="#p4" x="113.5" y="601"></use><use href="#p4" xlink:href="#p4" x="146" y="601"></use><use href="#p4" xlink:href="#p4" x="178.5" y="601"></use><use href="#p4" xlink:href="#p4" x="211" y="601"></use><use href="#p4" xlink:href="#p4" x="243.5" y="601"></use><use href="#p4" xlink:href="#p4" x="276" y="601"></use><use href="#p4" xlink:href="#p4" x="308.5" y="601"></use><use href="#p4" xlink:href="#p4" x="341" y="601"></use><use href="#p4" xlink:href="#p4" x="373.5" y="601"></use><use href="#p4" xlink:href="#p4" x="406" y="601"></use><use href="#p4" xlink:href="#p4" x="438.5" y="601"></use><use href="#p4" xlink:href="#p4" x="471" y="601"></use><use href="#p4" xlink:href="#p4" x="503.5" y="601"></use><use href="#p4" xlink:href="#p4" x="536" y="601"></use><use href="#p4" xlink:href="#p4" x="568.5" y="601"></use><use href="#p4" xlink:href="#p4" x="601" y="601"></use></g>
	<g id="numbers" fill="black"><use href="#n03" xlink:href="#n03" x="19.4" y="19.4"></use><use href="#n03" xlink:href="#n03" x="19.4" y="19.4" opacity="0.3"></use><use href="#n03" xlink:href="#n03" x="84.4" y="19.4"></use><use href="#n03" xlink:href="#n03" x="84.4" y="19.4" opacity="0.3"></use><use href="#n03" xlink:href="#n03" x="311.9" y="19.4"></use><use href="#n03" xlink:href="#n03" x="311.9" y="19.4" opacity="0.3"></use><use href="#n03" xlink:href="#n03" x="344.4" y="19.4"></use><use href="#n03" xlink:href="#n03" x="344.4" y="19.4" opacity="0.3"></use><use href="#n03" xlink:href="#n03" x="474.4" y="19.4"></use><use href="#n03" xlink:href="#n03" x="474.4" y="19.4" opacity="0.3"></use><use href="#n02" xlink:href="#n02" x="19.4" y="51.9"></use><use href="#n02" xlink:href="#n02" x="19.4" y="51.9" opacity="0.3"></use><use href="#n01" xlink:href="#n01" x="116.9" y="51.9"></use><use href="#n01" xlink:href="#n01" x="116.9" y="51.9" opacity="0.3"></use><use href="#n02" xlink:href="#n02" x="181.9" y="51.9"></use><use href="#n02" xlink:href="#n02" x="181.9" y="51.9" opacity="0.3"></use><use href="#n01" xlink:href="#n01" x="246.9" y="51.9"></use><use href="#n01" xlink:href="#n01" x="246.9" y="51.9" opacity="0.3"></use><use href="#n02" xlink:href="#n02" x="376.9" y="51.9"></use><use href="#n02" xlink:href="#n02" x="376.9" y="51.9" opacity="0.3"></use><use href="#n02" xlink:href="#n02" x="409.4" y="51.9"></use><use href="#n02" xlink:href="#n02" x="409.4" y="51.9" opacity="0.3"></use><use href="#n02" xlink:href="#n02" x="441.9" y="51.9"></use><use href="#n02" xlink:href="#n02" x="441.9" y="51.9" opacity="0.3"></use><use href="#n02" xlink:href="#n02" x="506.9" y="51.9"></use><use href="#n02" xlink:href="#n02" x="506.9" y="51.9" opacity="0.3"></use><use href="#n03" xlink:href="#n03" x="539.4" y="51.9"></use><use href="#n03" xlink:href="#n03" x="539.4" y="51.9" opacity="0.3"></use><use href="#n03" xlink:href="#n03" x="571.9" y="51.9"></use><use href="#n03" xlink:href="#n03" x="571.9" y="51.9" opacity="0.3"></use><use href="#n02" xlink:href="#n02" x="19.4" y="84.4"></use><use href="#n02" xlink:href="#n02" x="19.4" y="84.4" opacity="0.3"></use><use href="#n03" xlink:href="#n03" x="84.4" y="84.4"></use><use href="#n03" xlink:href="#n03" x="84.4" y="84.4" opacity="0.3"></use><use href="#n02" xlink:href="#n02" x="116.9" y="84.4"></use><use href="#n02" xlink:href="#n02" x="116.9" y="84.4" opacity="0.3"></use><use href="#n02" xlink:href="#n02" x="181.9" y="84.4"></use><use href="#n02" xlink:href="#n02" x="181.9" y="84.4" opacity="0.3"></use><use href="#n01" xlink:href="#n01" x="246.9" y="84.4"></use><use href="#n01" xlink:href="#n01" x="246.9" y="84.4" opacity="0.3"></use><use href="#n02" xlink:href="#n02" x="311.9" y="84.4"></use><use href="#n02" xlink:href="#n02" x="311.9" y="84.4" opacity="0.3"></use><use href="#n01" xlink:href="#n01" x="344.4" y="84.4"></use><use href="#n01" xlink:href="#n01" x="344.4" y="84.4" opacity="0.3"></use><use href="#n00" xlink:href="#n00" x="409.4" y="84.4"></use><use href="#n00" xlink:href="#n00" x="409.4" y="84.4" opacity="0.3"></use><use href="#n03" xlink:href="#n03" x="51.9" y="116.9"></use><use href="#n03" xlink:href="#n03" x="51.9" y="116.9" opacity="0.3"></use><use href="#n02" xlink:href="#n02" x="84.4" y="116.9"></use><use href="#n02" xlink:href="#n02" x="84.4" y="116.9" opacity="0.3"></use><use href="#n02" xlink:href="#n02" x="116.9" y="116.9"></use><use href="#n02" xlink:href="#n02" x="116.9" y="116.9" opacity="0.3"></use><use href="#n01" xlink:href="#n01" x="149.4" y="116.9"></use><use href="#n01" xlink:href="#n01" x="149.4" y="116.9" opacity="0.3"></use><use href="#n01" xlink:href="#n01" x="214.4" y="116.9"></use><use href="#n01" xlink:href="#n01" x="214.4" y="116.9" opacity="0.3"></use><use href="#n03" xlink:href="#n03" x="279.4" y="116.9"></use><use href="#n03" xlink:href="#n03" x="279.4" y="116.9" opacity="0.3"></use><use href="#n01" xlink:href="#n01" x="376.9" y="116.9"></use><use href="#n01" xlink:href="#n01" x="376.9" y="116.9" opacity="0.3"></use><use href="#n02" xlink:href="#n02" x="506.9" y="116.9"></use><use href="#n02" xlink:href="#n02" x="506.9" y="116.9" opacity="0.3"></use><use href="#n03" xlink:href="#n03" x="571.9" y="116.9"></use><use href="#n03" xlink:href="#n03" x="571.9" y="116.9" opacity="0.3"></use><use href="#n02" xlink:href="#n02" x="19.4" y="149.4"></use><use href="#n02" xlink:href="#n02" x="19.4" y="149.4" opacity="0.3"></use><use href="#n02" xlink:href="#n02" x="51.9" y="149.4"></use><use href="#n02" xlink:href="#n02" x="51.9" y="149.4" opacity="0.3"></use><use href="#n03" xlink:href="#n03" x="409.4" y="149.4"></use><use href="#n03" xlink:href="#n03" x="409.4" y="149.4" opacity="0.3"></use><use href="#n03" xlink:href="#n03" x="474.4" y="149.4"></use><use href="#n03" xlink:href="#n03" x="474.4" y="149.4" opacity="0.3"></use><use href="#n02" xlink:href="#n02" x="571.9" y="149.4"></use><use href="#n02" xlink:href="#n02" x="571.9" y="149.4" opacity="0.3"></use><use href="#n02" xlink:href="#n02" x="19.4" y="181.9"></use><use href="#n02" xlink:href="#n02" x="19.4" y="181.9" opacity="0.3"></use><use href="#n03" xlink:href="#n03" x="84.4" y="181.9"></use><use href="#n03" xlink:href="#n03" x="84.4" y="181.9" opacity="0.3"></use><use href="#n01" xlink:href="#n01" x="116.9" y="181.9"></use><use href="#n01" xlink:href="#n01" x="116.9" y="181.9" opacity="0.3"></use><use href="#n02" xlink:href="#n02" x="149.4" y="181.9"></use><use href="#n02" xlink:href="#n02" x="149.4" y="181.9" opacity="0.3"></use><use href="#n02" xlink:href="#n02" x="181.9" y="181.9"></use><use href="#n02" xlink:href="#n02" x="181.9" y="181.9" opacity="0.3"></use><use href="#n02" xlink:href="#n02" x="279.4" y="181.9"></use><use href="#n02" xlink:href="#n02" x="279.4" y="181.9" opacity="0.3"></use><use href="#n01" xlink:href="#n01" x="571.9" y="181.9"></use><use href="#n01" xlink:href="#n01" x="571.9" y="181.9" opacity="0.3"></use><use href="#n01" xlink:href="#n01" x="84.4" y="214.4"></use><use href="#n01" xlink:href="#n01" x="84.4" y="214.4" opacity="0.3"></use><use href="#n03" xlink:href="#n03" x="181.9" y="214.4"></use><use href="#n03" xlink:href="#n03" x="181.9" y="214.4" opacity="0.3"></use><use href="#n01" xlink:href="#n01" x="214.4" y="214.4"></use><use href="#n01" xlink:href="#n01" x="214.4" y="214.4" opacity="0.3"></use><use href="#n03" xlink:href="#n03" x="246.9" y="214.4"></use><use href="#n03" xlink:href="#n03" x="246.9" y="214.4" opacity="0.3"></use><use href="#n03" xlink:href="#n03" x="376.9" y="214.4"></use><use href="#n03" xlink:href="#n03" x="376.9" y="214.4" opacity="0.3"></use><use href="#n01" xlink:href="#n01" x="506.9" y="214.4"></use><use href="#n01" xlink:href="#n01" x="506.9" y="214.4" opacity="0.3"></use><use href="#n01" xlink:href="#n01" x="539.4" y="214.4"></use><use href="#n01" xlink:href="#n01" x="539.4" y="214.4" opacity="0.3"></use><use href="#n02" xlink:href="#n02" x="19.4" y="246.9"></use><use href="#n02" xlink:href="#n02" x="19.4" y="246.9" opacity="0.3"></use><use href="#n03" xlink:href="#n03" x="51.9" y="246.9"></use><use href="#n03" xlink:href="#n03" x="51.9" y="246.9" opacity="0.3"></use><use href="#n01" xlink:href="#n01" x="84.4" y="246.9"></use><use href="#n01" xlink:href="#n01" x="84.4" y="246.9" opacity="0.3"></use><use href="#n02" xlink:href="#n02" x="116.9" y="246.9"></use><use href="#n02" xlink:href="#n02" x="116.9" y="246.9" opacity="0.3"></use><use href="#n03" xlink:href="#n03" x="311.9" y="246.9"></use><use href="#n03" xlink:href="#n03" x="311.9" y="246.9" opacity="0.3"></use><use href="#n03" xlink:href="#n03" x="571.9" y="246.9"></use><use href="#n03" xlink:href="#n03" x="571.9" y="246.9" opacity="0.3"></use><use href="#n02" xlink:href="#n02" x="51.9" y="279.4"></use><use href="#n02" xlink:href="#n02" x="51.9" y="279.4" opacity="0.3"></use><use href="#n02" xlink:href="#n02" x="181.9" y="279.4"></use><use href="#n02" xlink:href="#n02" x="181.9" y="279.4" opacity="0.3"></use><use href="#n03" xlink:href="#n03" x="279.4" y="279.4"></use><use href="#n03" xlink:href="#n03" x="279.4" y="279.4" opacity="0.3"></use><use href="#n03" xlink:href="#n03" x="344.4" y="279.4"></use><use href="#n03" xlink:href="#n03" x="344.4" y="279.4" opacity="0.3"></use><use href="#n02" xlink:href="#n02" x="376.9" y="279.4"></use><use href="#n02" xlink:href="#n02" x="376.9" y="279.4" opacity="0.3"></use><use href="#n02" xlink:href="#n02" x="409.4" y="279.4"></use><use href="#n02" xlink:href="#n02" x="409.4" y="279.4" opacity="0.3"></use><use href="#n03" xlink:href="#n03" x="441.9" y="279.4"></use><use href="#n03" xlink:href="#n03" x="441.9" y="279.4" opacity="0.3"></use><use href="#n02" xlink:href="#n02" x="506.9" y="279.4"></use><use href="#n02" xlink:href="#n02" x="506.9" y="279.4" opacity="0.3"></use><use href="#n00" xlink:href="#n00" x="539.4" y="279.4"></use><use href="#n00" xlink:href="#n00" x="539.4" y="279.4" opacity="0.3"></use><use href="#n02" xlink:href="#n02" x="571.9" y="279.4"></use><use href="#n02" xlink:href="#n02" x="571.9" y="279.4" opacity="0.3"></use><use href="#n03" xlink:href="#n03" x="19.4" y="311.9"></use><use href="#n03" xlink:href="#n03" x="19.4" y="311.9" opacity="0.3"></use><use href="#n02" xlink:href="#n02" x="51.9" y="311.9"></use><use href="#n02" xlink:href="#n02" x="51.9" y="311.9" opacity="0.3"></use><use href="#n03" xlink:href="#n03" x="149.4" y="311.9"></use><use href="#n03" xlink:href="#n03" x="149.4" y="311.9" opacity="0.3"></use><use href="#n02" xlink:href="#n02" x="246.9" y="311.9"></use><use href="#n02" xlink:href="#n02" x="246.9" y="311.9" opacity="0.3"></use><use href="#n01" xlink:href="#n01" x="311.9" y="311.9"></use><use href="#n01" xlink:href="#n01" x="311.9" y="311.9" opacity="0.3"></use><use href="#n03" xlink:href="#n03" x="344.4" y="311.9"></use><use href="#n03" xlink:href="#n03" x="344.4" y="311.9" opacity="0.3"></use><use href="#n02" xlink:href="#n02" x="376.9" y="311.9"></use><use href="#n02" xlink:href="#n02" x="376.9" y="311.9" opacity="0.3"></use><use href="#n01" xlink:href="#n01" x="19.4" y="344.4"></use><use href="#n01" xlink:href="#n01" x="19.4" y="344.4" opacity="0.3"></use><use href="#n01" xlink:href="#n01" x="51.9" y="344.4"></use><use href="#n01" xlink:href="#n01" x="51.9" y="344.4" opacity="0.3"></use><use href="#n02" xlink:href="#n02" x="149.4" y="344.4"></use><use href="#n02" xlink:href="#n02" x="149.4" y="344.4" opacity="0.3"></use><use href="#n01" xlink:href="#n01" x="181.9" y="344.4"></use><use href="#n01" xlink:href="#n01" x="181.9" y="344.4" opacity="0.3"></use><use href="#n01" xlink:href="#n01" x="246.9" y="344.4"></use><use href="#n01" xlink:href="#n01" x="246.9" y="344.4" opacity="0.3"></use><use href="#n02" xlink:href="#n02" x="409.4" y="344.4"></use><use href="#n02" xlink:href="#n02" x="409.4" y="344.4" opacity="0.3"></use><use href="#n03" xlink:href="#n03" x="441.9" y="344.4"></use><use href="#n03" xlink:href="#n03" x="441.9" y="344.4" opacity="0.3"></use><use href="#n01" xlink:href="#n01" x="474.4" y="344.4"></use><use href="#n01" xlink:href="#n01" x="474.4" y="344.4" opacity="0.3"></use><use href="#n03" xlink:href="#n03" x="506.9" y="344.4"></use><use href="#n03" xlink:href="#n03" x="506.9" y="344.4" opacity="0.3"></use><use href="#n03" xlink:href="#n03" x="181.9" y="376.9"></use><use href="#n03" xlink:href="#n03" x="181.9" y="376.9" opacity="0.3"></use><use href="#n03" xlink:href="#n03" x="344.4" y="376.9"></use><use href="#n03" xlink:href="#n03" x="344.4" y="376.9" opacity="0.3"></use><use href="#n02" xlink:href="#n02" x="376.9" y="376.9"></use><use href="#n02" xlink:href="#n02" x="376.9" y="376.9" opacity="0.3"></use><use href="#n02" xlink:href="#n02" x="474.4" y="376.9"></use><use href="#n02" xlink:href="#n02" x="474.4" y="376.9" opacity="0.3"></use><use href="#n02" xlink:href="#n02" x="506.9" y="376.9"></use><use href="#n02" xlink:href="#n02" x="506.9" y="376.9" opacity="0.3"></use><use href="#n03" xlink:href="#n03" x="19.4" y="409.4"></use><use href="#n03" xlink:href="#n03" x="19.4" y="409.4" opacity="0.3"></use><use href="#n01" xlink:href="#n01" x="51.9" y="409.4"></use><use href="#n01" xlink:href="#n01" x="51.9" y="409.4" opacity="0.3"></use><use href="#n02" xlink:href="#n02" x="84.4" y="409.4"></use><use href="#n02" xlink:href="#n02" x="84.4" y="409.4" opacity="0.3"></use><use href="#n01" xlink:href="#n01" x="149.4" y="409.4"></use><use href="#n01" xlink:href="#n01" x="149.4" y="409.4" opacity="0.3"></use><use href="#n00" xlink:href="#n00" x="214.4" y="409.4"></use><use href="#n00" xlink:href="#n00" x="214.4" y="409.4" opacity="0.3"></use><use href="#n01" xlink:href="#n01" x="279.4" y="409.4"></use><use href="#n01" xlink:href="#n01" x="279.4" y="409.4" opacity="0.3"></use><use href="#n03" xlink:href="#n03" x="311.9" y="409.4"></use><use href="#n03" xlink:href="#n03" x="311.9" y="409.4" opacity="0.3"></use><use href="#n01" xlink:href="#n01" x="409.4" y="409.4"></use><use href="#n01" xlink:href="#n01" x="409.4" y="409.4" opacity="0.3"></use><use href="#n02" xlink:href="#n02" x="539.4" y="409.4"></use><use href="#n02" xlink:href="#n02" x="539.4" y="409.4" opacity="0.3"></use><use href="#n02" xlink:href="#n02" x="571.9" y="409.4"></use><use href="#n02" xlink:href="#n02" x="571.9" y="409.4" opacity="0.3"></use><use href="#n03" xlink:href="#n03" x="84.4" y="441.9"></use><use href="#n03" xlink:href="#n03" x="84.4" y="441.9" opacity="0.3"></use><use href="#n02" xlink:href="#n02" x="149.4" y="441.9"></use><use href="#n02" xlink:href="#n02" x="149.4" y="441.9" opacity="0.3"></use><use href="#n02" xlink:href="#n02" x="279.4" y="441.9"></use><use href="#n02" xlink:href="#n02" x="279.4" y="441.9" opacity="0.3"></use><use href="#n03" xlink:href="#n03" x="376.9" y="441.9"></use><use href="#n03" xlink:href="#n03" x="376.9" y="441.9" opacity="0.3"></use><use href="#n02" xlink:href="#n02" x="409.4" y="441.9"></use><use href="#n02" xlink:href="#n02" x="409.4" y="441.9" opacity="0.3"></use><use href="#n02" xlink:href="#n02" x="441.9" y="441.9"></use><use href="#n02" xlink:href="#n02" x="441.9" y="441.9" opacity="0.3"></use><use href="#n03" xlink:href="#n03" x="571.9" y="441.9"></use><use href="#n03" xlink:href="#n03" x="571.9" y="441.9" opacity="0.3"></use><use href="#n01" xlink:href="#n01" x="51.9" y="474.4"></use><use href="#n01" xlink:href="#n01" x="51.9" y="474.4" opacity="0.3"></use><use href="#n02" xlink:href="#n02" x="181.9" y="474.4"></use><use href="#n02" xlink:href="#n02" x="181.9" y="474.4" opacity="0.3"></use><use href="#n02" xlink:href="#n02" x="376.9" y="474.4"></use><use href="#n02" xlink:href="#n02" x="376.9" y="474.4" opacity="0.3"></use><use href="#n01" xlink:href="#n01" x="474.4" y="474.4"></use><use href="#n01" xlink:href="#n01" x="474.4" y="474.4" opacity="0.3"></use><use href="#n02" xlink:href="#n02" x="506.9" y="474.4"></use><use href="#n02" xlink:href="#n02" x="506.9" y="474.4" opacity="0.3"></use><use href="#n00" xlink:href="#n00" x="539.4" y="474.4"></use><use href="#n00" xlink:href="#n00" x="539.4" y="474.4" opacity="0.3"></use><use href="#n02" xlink:href="#n02" x="19.4" y="506.9"></use><use href="#n02" xlink:href="#n02" x="19.4" y="506.9" opacity="0.3"></use><use href="#n01" xlink:href="#n01" x="51.9" y="506.9"></use><use href="#n01" xlink:href="#n01" x="51.9" y="506.9" opacity="0.3"></use><use href="#n03" xlink:href="#n03" x="84.4" y="506.9"></use><use href="#n03" xlink:href="#n03" x="84.4" y="506.9" opacity="0.3"></use><use href="#n02" xlink:href="#n02" x="214.4" y="506.9"></use><use href="#n02" xlink:href="#n02" x="214.4" y="506.9" opacity="0.3"></use><use href="#n01" xlink:href="#n01" x="246.9" y="506.9"></use><use href="#n01" xlink:href="#n01" x="246.9" y="506.9" opacity="0.3"></use><use href="#n01" xlink:href="#n01" x="311.9" y="506.9"></use><use href="#n01" xlink:href="#n01" x="311.9" y="506.9" opacity="0.3"></use><use href="#n03" xlink:href="#n03" x="376.9" y="506.9"></use><use href="#n03" xlink:href="#n03" x="376.9" y="506.9" opacity="0.3"></use><use href="#n02" xlink:href="#n02" x="409.4" y="506.9"></use><use href="#n02" xlink:href="#n02" x="409.4" y="506.9" opacity="0.3"></use><use href="#n02" xlink:href="#n02" x="441.9" y="506.9"></use><use href="#n02" xlink:href="#n02" x="441.9" y="506.9" opacity="0.3"></use><use href="#n02" xlink:href="#n02" x="474.4" y="506.9"></use><use href="#n02" xlink:href="#n02" x="474.4" y="506.9" opacity="0.3"></use><use href="#n02" xlink:href="#n02" x="539.4" y="506.9"></use><use href="#n02" xlink:href="#n02" x="539.4" y="506.9" opacity="0.3"></use><use href="#n03" xlink:href="#n03" x="571.9" y="506.9"></use><use href="#n03" xlink:href="#n03" x="571.9" y="506.9" opacity="0.3"></use><use href="#n01" xlink:href="#n01" x="19.4" y="539.4"></use><use href="#n01" xlink:href="#n01" x="19.4" y="539.4" opacity="0.3"></use><use href="#n02" xlink:href="#n02" x="51.9" y="539.4"></use><use href="#n02" xlink:href="#n02" x="51.9" y="539.4" opacity="0.3"></use><use href="#n01" xlink:href="#n01" x="116.9" y="539.4"></use><use href="#n01" xlink:href="#n01" x="116.9" y="539.4" opacity="0.3"></use><use href="#n03" xlink:href="#n03" x="181.9" y="539.4"></use><use href="#n03" xlink:href="#n03" x="181.9" y="539.4" opacity="0.3"></use><use href="#n01" xlink:href="#n01" x="214.4" y="539.4"></use><use href="#n01" xlink:href="#n01" x="214.4" y="539.4" opacity="0.3"></use><use href="#n00" xlink:href="#n00" x="246.9" y="539.4"></use><use href="#n00" xlink:href="#n00" x="246.9" y="539.4" opacity="0.3"></use><use href="#n03" xlink:href="#n03" x="279.4" y="539.4"></use><use href="#n03" xlink:href="#n03" x="279.4" y="539.4" opacity="0.3"></use><use href="#n02" xlink:href="#n02" x="311.9" y="539.4"></use><use href="#n02" xlink:href="#n02" x="311.9" y="539.4" opacity="0.3"></use><use href="#n02" xlink:href="#n02" x="376.9" y="539.4"></use><use href="#n02" xlink:href="#n02" x="376.9" y="539.4" opacity="0.3"></use><use href="#n02" xlink:href="#n02" x="441.9" y="539.4"></use><use href="#n02" xlink:href="#n02" x="441.9" y="539.4" opacity="0.3"></use><use href="#n02" xlink:href="#n02" x="506.9" y="539.4"></use><use href="#n02" xlink:href="#n02" x="506.9" y="539.4" opacity="0.3"></use><use href="#n03" xlink:href="#n03" x="84.4" y="571.9"></use><use href="#n03" xlink:href="#n03" x="84.4" y="571.9" opacity="0.3"></use><use href="#n02" xlink:href="#n02" x="116.9" y="571.9"></use><use href="#n02" xlink:href="#n02" x="116.9" y="571.9" opacity="0.3"></use><use href="#n02" xlink:href="#n02" x="149.4" y="571.9"></use><use href="#n02" xlink:href="#n02" x="149.4" y="571.9" opacity="0.3"></use><use href="#n02" xlink:href="#n02" x="409.4" y="571.9"></use><use href="#n02" xlink:href="#n02" x="409.4" y="571.9" opacity="0.3"></use><use href="#n02" xlink:href="#n02" x="441.9" y="571.9"></use><use href="#n02" xlink:href="#n02" x="441.9" y="571.9" opacity="0.3"></use><use href="#n02" xlink:href="#n02" x="506.9" y="571.9"></use><use href="#n02" xlink:href="#n02" x="506.9" y="571.9" opacity="0.3"></use><use href="#n03" xlink:href="#n03" x="571.9" y="571.9"></use><use href="#n03" xlink:href="#n03" x="571.9" y="571.9" opacity="0.3"></use></g>
</g>
</svg>